<svg width="16" height="16" viewBox="0 0 16 16" fill="none" xmlns="http://www.w3.org/2000/svg">
<path d="M8.00016 14.6667C11.6668 14.6667 14.6668 11.6667 14.6668 8.00001C14.6668 4.33334 11.6668 1.33334 8.00016 1.33334C4.3335 1.33334 1.3335 4.33334 1.3335 8.00001C1.3335 11.6667 4.3335 14.6667 8.00016 14.6667Z" stroke="#1E2A3B" stroke-linecap="round" stroke-linejoin="round"/>
<path d="M8.00016 14.6667C11.6668 14.6667 14.6668 11.6667 14.6668 8.00001C14.6668 4.33334 11.6668 1.33334 8.00016 1.33334C4.3335 1.33334 1.3335 4.33334 1.3335 8.00001C1.3335 11.6667 4.3335 14.6667 8.00016 14.6667Z" stroke="black" stroke-opacity="0.2" stroke-linecap="round" stroke-linejoin="round"/>
<path d="M8.00016 14.6667C11.6668 14.6667 14.6668 11.6667 14.6668 8.00001C14.6668 4.33334 11.6668 1.33334 8.00016 1.33334C4.3335 1.33334 1.3335 4.33334 1.3335 8.00001C1.3335 11.6667 4.3335 14.6667 8.00016 14.6667Z" stroke="black" stroke-opacity="0.2" stroke-linecap="round" stroke-linejoin="round"/>
<path d="M8.00016 14.6667C11.6668 14.6667 14.6668 11.6667 14.6668 8.00001C14.6668 4.33334 11.6668 1.33334 8.00016 1.33334C4.3335 1.33334 1.3335 4.33334 1.3335 8.00001C1.3335 11.6667 4.3335 14.6667 8.00016 14.6667Z" stroke="black" stroke-opacity="0.2" stroke-linecap="round" stroke-linejoin="round"/>
<path d="M8.00016 14.6667C11.6668 14.6667 14.6668 11.6667 14.6668 8.00001C14.6668 4.33334 11.6668 1.33334 8.00016 1.33334C4.3335 1.33334 1.3335 4.33334 1.3335 8.00001C1.3335 11.6667 4.3335 14.6667 8.00016 14.6667Z" stroke="black" stroke-opacity="0.2" stroke-linecap="round" stroke-linejoin="round"/>
<path d="M8 5.33334V8.66668" stroke="#1E2A3B" stroke-linecap="round" stroke-linejoin="round"/>
<path d="M8 5.33334V8.66668" stroke="black" stroke-opacity="0.2" stroke-linecap="round" stroke-linejoin="round"/>
<path d="M8 5.33334V8.66668" stroke="black" stroke-opacity="0.2" stroke-linecap="round" stroke-linejoin="round"/>
<path d="M8 5.33334V8.66668" stroke="black" stroke-opacity="0.2" stroke-linecap="round" stroke-linejoin="round"/>
<path d="M8 5.33334V8.66668" stroke="black" stroke-opacity="0.2" stroke-linecap="round" stroke-linejoin="round"/>
<path d="M7.99658 10.6667H8.00257" stroke="#1E2A3B" stroke-width="1.33333" stroke-linecap="round" stroke-linejoin="round"/>
<path d="M7.99658 10.6667H8.00257" stroke="black" stroke-opacity="0.2" stroke-width="1.33333" stroke-linecap="round" stroke-linejoin="round"/>
<path d="M7.99658 10.6667H8.00257" stroke="black" stroke-opacity="0.2" stroke-width="1.33333" stroke-linecap="round" stroke-linejoin="round"/>
<path d="M7.99658 10.6667H8.00257" stroke="black" stroke-opacity="0.2" stroke-width="1.33333" stroke-linecap="round" stroke-linejoin="round"/>
<path d="M7.99658 10.6667H8.00257" stroke="black" stroke-opacity="0.2" stroke-width="1.33333" stroke-linecap="round" stroke-linejoin="round"/>
</svg>
