<svg width="553" height="180" viewBox="0 0 553 180" fill="none" xmlns="http://www.w3.org/2000/svg">
<rect x="464.681" y="63" width="113.52" height="113.52" rx="56.7602" transform="rotate(39.8103 464.681 63)" fill="#DBDDF8"/>
<g clip-path="url(#clip0_0_308)">
<path d="M446.761 135.286L452.845 126.525C460.004 116.353 475.363 112.807 488.166 123.477C500.969 134.148 500.247 149.894 491.531 158.769L484.009 166.332" stroke="#313B6B" stroke-width="4.0543" stroke-linecap="round" stroke-linejoin="round"/>
<path d="M449.295 131.884C447.969 133.617 446.629 135.407 445.358 137.3C444.088 139.193 442.939 141.112 441.839 142.993C439.594 146.849 440.687 149.471 444.132 151.765C447.578 154.059 450.429 154.063 453.148 150.522C454.472 148.788 455.813 146.998 457.083 145.106C458.353 143.213 459.503 141.294 460.603 139.412C462.848 135.556 461.755 132.934 458.309 130.64C454.864 128.346 452.013 128.343 449.295 131.884Z" fill="#B6C0F3"/>
<path d="M486.898 163.226C485.432 164.843 483.913 166.483 482.28 168.074C480.647 169.664 478.966 171.141 477.314 172.561C473.925 175.464 471.149 174.861 468.272 171.885C465.395 168.909 464.877 166.106 467.87 162.794C469.338 161.179 470.857 159.537 472.49 157.947C474.122 156.357 475.803 154.88 477.456 153.459C480.844 150.556 483.62 151.159 486.497 154.135C489.374 157.111 489.891 159.914 486.898 163.226Z" fill="#B6C0F3"/>
<path d="M449.295 131.884C447.969 133.617 446.629 135.407 445.358 137.3C444.088 139.193 442.939 141.112 441.839 142.993C439.594 146.849 440.687 149.471 444.132 151.765C447.578 154.059 450.429 154.063 453.148 150.522C454.472 148.788 455.813 146.998 457.083 145.106C458.353 143.213 459.503 141.294 460.603 139.412C462.848 135.556 461.755 132.934 458.309 130.64C454.864 128.346 452.013 128.343 449.295 131.884Z" stroke="#313B6B" stroke-width="4.0543" stroke-linecap="round" stroke-linejoin="round"/>
<path d="M486.898 163.226C485.432 164.843 483.913 166.483 482.28 168.074C480.647 169.664 478.966 171.141 477.314 172.561C473.925 175.464 471.149 174.861 468.272 171.885C465.395 168.909 464.877 166.106 467.87 162.794C469.338 161.179 470.857 159.537 472.49 157.947C474.122 156.357 475.803 154.88 477.456 153.459C480.844 150.556 483.62 151.159 486.497 154.135C489.374 157.111 489.891 159.914 486.898 163.226Z" stroke="#313B6B" stroke-width="4.0543" stroke-linecap="round" stroke-linejoin="round"/>
</g>
<rect x="21" y="-5.29443" width="95.0681" height="95.0681" rx="47.534" transform="rotate(-29.4251 21 -5.29443)" fill="#E4EAF8"/>
<g clip-path="url(#clip1_0_308)">
<path d="M72.2839 30.1998L67.2296 22.8343C61.3899 14.2081 63.1731 1.12822 75.3301 -5.72892C87.4872 -12.5861 99.6028 -7.34583 103.965 2.11409L107.654 10.2496" stroke="#313B6B" stroke-width="3.39529" stroke-linecap="round" stroke-linejoin="round"/>
<path d="M70.3717 27.2052C71.3353 28.7583 72.3394 30.339 73.4443 31.8956C74.5493 33.4522 75.7109 34.9223 76.8578 36.3422C79.2107 39.245 81.588 39.1674 84.4073 37.1503C87.2269 35.1331 88.0765 32.9024 86.1112 29.7219C85.146 28.1698 84.1427 26.5886 83.0378 25.032C81.9328 23.4754 80.7712 22.0053 79.6244 20.5855C77.2715 17.6828 74.894 17.7602 72.0748 19.7772C69.2555 21.7942 68.4067 24.0251 70.3717 27.2052Z" fill="#B6C0F3"/>
<path d="M106.079 7.06497C106.91 8.69302 107.743 10.3699 108.504 12.1207C109.265 13.8717 109.922 15.6261 110.544 17.3422C111.811 20.8574 110.515 22.8519 107.33 24.2213C104.145 25.5909 101.797 25.1641 100.091 21.8368C99.2624 20.208 98.4282 18.5315 97.6676 16.7806C96.907 15.0297 96.2497 13.2752 95.6278 11.5593C94.3607 8.04416 95.6567 6.04955 98.8413 4.68013C102.026 3.31068 104.374 3.73831 106.079 7.06497Z" fill="#B6C0F3"/>
<path d="M70.3717 27.2052C71.3353 28.7583 72.3394 30.339 73.4443 31.8956C74.5493 33.4522 75.7109 34.9223 76.8578 36.3422C79.2107 39.245 81.588 39.1674 84.4073 37.1503C87.2269 35.1331 88.0765 32.9024 86.1112 29.7219C85.146 28.1698 84.1427 26.5886 83.0378 25.032C81.9328 23.4754 80.7712 22.0053 79.6244 20.5855C77.2715 17.6828 74.894 17.7602 72.0748 19.7772C69.2555 21.7942 68.4067 24.0251 70.3717 27.2052Z" stroke="#313B6B" stroke-width="3.39529" stroke-linecap="round" stroke-linejoin="round"/>
<path d="M106.079 7.06497C106.91 8.69302 107.743 10.3699 108.504 12.1207C109.265 13.8717 109.922 15.6261 110.544 17.3422C111.811 20.8574 110.515 22.8519 107.33 24.2213C104.145 25.5909 101.797 25.1641 100.091 21.8368C99.2624 20.208 98.4282 18.5315 97.6676 16.7806C96.907 15.0297 96.2497 13.2752 95.6278 11.5593C94.3607 8.04416 95.6567 6.04955 98.8413 4.68013C102.026 3.31068 104.374 3.73831 106.079 7.06497Z" stroke="#313B6B" stroke-width="3.39529" stroke-linecap="round" stroke-linejoin="round"/>
</g>
<rect x="273" y="103.023" width="78.9974" height="78.9974" rx="39.4987" transform="rotate(-23.9138 273 103.023)" fill="#E4EAF8"/>
<g clip-path="url(#clip2_0_308)">
<path d="M312.585 136.473L308.992 129.978C304.85 122.377 307.369 111.701 317.972 106.999C328.574 102.298 338.177 107.599 341.03 115.772L343.432 122.795" stroke="#313B6B" stroke-width="2.82134" stroke-linecap="round" stroke-linejoin="round"/>
<path d="M311.243 133.844C311.916 135.206 312.62 136.593 313.41 137.969C314.199 139.345 315.043 140.653 315.878 141.919C317.593 144.508 319.565 144.634 322.058 143.19C324.551 141.747 325.432 139.97 324.06 137.182C323.386 135.821 322.682 134.433 321.892 133.058C321.103 131.682 320.259 130.373 319.424 129.107C317.71 126.519 315.737 126.393 313.244 127.836C310.751 129.28 309.871 131.057 311.243 133.844Z" fill="#B6C0F3"/>
<path d="M342.384 120.035C342.941 121.448 343.497 122.902 343.986 124.411C344.476 125.92 344.879 127.423 345.257 128.892C346.024 131.901 344.793 133.447 342.05 134.325C339.306 135.204 337.398 134.664 336.253 131.776C335.697 130.362 335.141 128.909 334.651 127.4C334.162 125.891 333.758 124.388 333.381 122.919C332.614 119.91 333.845 118.364 336.588 117.485C339.331 116.607 341.239 117.148 342.384 120.035Z" fill="#B6C0F3"/>
<path d="M311.243 133.844C311.916 135.206 312.62 136.593 313.41 137.969C314.199 139.345 315.043 140.653 315.878 141.919C317.593 144.508 319.565 144.634 322.058 143.19C324.551 141.747 325.432 139.97 324.06 137.182C323.386 135.821 322.682 134.433 321.892 133.058C321.103 131.682 320.259 130.373 319.424 129.107C317.71 126.519 315.737 126.393 313.244 127.836C310.751 129.28 309.871 131.057 311.243 133.844Z" stroke="#313B6B" stroke-width="2.82134" stroke-linecap="round" stroke-linejoin="round"/>
<path d="M342.384 120.035C342.941 121.448 343.497 122.902 343.986 124.411C344.476 125.92 344.879 127.423 345.257 128.892C346.024 131.901 344.793 133.447 342.05 134.325C339.306 135.204 337.398 134.664 336.253 131.776C335.697 130.362 335.141 128.909 334.651 127.4C334.162 125.891 333.758 124.388 333.381 122.919C332.614 119.91 333.845 118.364 336.588 117.485C339.331 116.607 341.239 117.148 342.384 120.035Z" stroke="#313B6B" stroke-width="2.82134" stroke-linecap="round" stroke-linejoin="round"/>
</g>
<rect x="448" y="-6.97746" width="78.9974" height="78.9974" rx="39.4987" transform="rotate(-23.9138 448 -6.97746)" fill="#E4EAF8"/>
<g clip-path="url(#clip3_0_308)">
<path d="M487.585 26.4735L483.992 19.978C479.85 12.3771 482.369 1.70084 492.972 -3.0006C503.574 -7.70204 513.177 -2.40083 516.03 5.7717L518.432 12.7951" stroke="#313B6B" stroke-width="2.82134" stroke-linecap="round" stroke-linejoin="round"/>
<path d="M486.243 23.8444C486.916 25.2058 487.62 26.5933 488.41 27.9691C489.199 29.3447 490.043 30.6534 490.878 31.9193C492.593 34.508 494.565 34.6336 497.058 33.1902C499.551 31.7468 500.432 29.9696 499.06 27.182C498.386 25.8213 497.682 24.4334 496.892 23.0577C496.103 21.682 495.259 20.3734 494.424 19.1075C492.71 16.5188 490.737 16.3931 488.244 17.8364C485.751 19.2798 484.871 21.0572 486.243 23.8444Z" fill="#B6C0F3"/>
<path d="M517.384 10.0354C517.941 11.4483 518.497 12.9018 518.986 14.4106C519.476 15.9196 519.879 17.4231 520.257 18.8922C521.024 21.9008 519.793 23.447 517.05 24.3255C514.306 25.2041 512.398 24.6637 511.253 21.7756C510.697 20.3622 510.141 18.9089 509.651 17.4001C509.162 15.8912 508.758 14.3875 508.381 12.9187C507.614 9.91009 508.845 8.36374 511.588 7.48523C514.331 6.60669 516.239 7.14778 517.384 10.0354Z" fill="#B6C0F3"/>
<path d="M486.243 23.8444C486.916 25.2058 487.62 26.5933 488.41 27.9691C489.199 29.3447 490.043 30.6534 490.878 31.9193C492.593 34.508 494.565 34.6336 497.058 33.1902C499.551 31.7468 500.432 29.9696 499.06 27.182C498.386 25.8213 497.682 24.4334 496.892 23.0577C496.103 21.682 495.259 20.3734 494.424 19.1075C492.71 16.5188 490.737 16.3931 488.244 17.8364C485.751 19.2798 484.871 21.0572 486.243 23.8444Z" stroke="#313B6B" stroke-width="2.82134" stroke-linecap="round" stroke-linejoin="round"/>
<path d="M517.384 10.0354C517.941 11.4483 518.497 12.9018 518.986 14.4106C519.476 15.9196 519.879 17.4231 520.257 18.8922C521.024 21.9008 519.793 23.447 517.05 24.3255C514.306 25.2041 512.398 24.6637 511.253 21.7756C510.697 20.3622 510.141 18.9089 509.651 17.4001C509.162 15.8912 508.758 14.3875 508.381 12.9187C507.614 9.91009 508.845 8.36374 511.588 7.48523C514.331 6.60669 516.239 7.14778 517.384 10.0354Z" stroke="#313B6B" stroke-width="2.82134" stroke-linecap="round" stroke-linejoin="round"/>
</g>
<rect x="218" y="6.02254" width="78.9974" height="78.9974" rx="39.4987" transform="rotate(-23.9138 218 6.02254)" fill="#DBDDF8"/>
<g clip-path="url(#clip4_0_308)">
<path d="M257.585 39.4735L253.992 32.978C249.85 25.3771 252.369 14.7008 262.972 9.9994C273.574 5.29796 283.177 10.5992 286.03 18.7717L288.432 25.7951" stroke="#313B6B" stroke-width="2.82134" stroke-linecap="round" stroke-linejoin="round"/>
<path d="M256.243 36.8444C256.916 38.2058 257.62 39.5933 258.41 40.9691C259.199 42.3447 260.043 43.6534 260.878 44.9193C262.593 47.508 264.565 47.6336 267.058 46.1902C269.551 44.7468 270.432 42.9696 269.06 40.182C268.386 38.8213 267.682 37.4334 266.892 36.0577C266.103 34.682 265.259 33.3734 264.424 32.1075C262.71 29.5188 260.737 29.3931 258.244 30.8364C255.751 32.2798 254.871 34.0572 256.243 36.8444Z" fill="#B6C0F3"/>
<path d="M287.384 23.0354C287.941 24.4483 288.497 25.9018 288.986 27.4106C289.476 28.9196 289.879 30.4231 290.257 31.8922C291.024 34.9008 289.793 36.447 287.05 37.3255C284.306 38.2041 282.398 37.6637 281.253 34.7756C280.697 33.3622 280.141 31.9089 279.651 30.4001C279.162 28.8912 278.758 27.3875 278.381 25.9187C277.614 22.9101 278.845 21.3637 281.588 20.4852C284.331 19.6067 286.239 20.1478 287.384 23.0354Z" fill="#B6C0F3"/>
<path d="M256.243 36.8444C256.916 38.2058 257.62 39.5933 258.41 40.9691C259.199 42.3447 260.043 43.6534 260.878 44.9193C262.593 47.508 264.565 47.6336 267.058 46.1902C269.551 44.7468 270.432 42.9696 269.06 40.182C268.386 38.8213 267.682 37.4334 266.892 36.0577C266.103 34.682 265.259 33.3734 264.424 32.1075C262.71 29.5188 260.737 29.3931 258.244 30.8364C255.751 32.2798 254.871 34.0572 256.243 36.8444Z" stroke="#313B6B" stroke-width="2.82134" stroke-linecap="round" stroke-linejoin="round"/>
<path d="M287.384 23.0354C287.941 24.4483 288.497 25.9018 288.986 27.4106C289.476 28.9196 289.879 30.4231 290.257 31.8922C291.024 34.9008 289.793 36.447 287.05 37.3255C284.306 38.2041 282.398 37.6637 281.253 34.7756C280.697 33.3622 280.141 31.9089 279.651 30.4001C279.162 28.8912 278.758 27.3875 278.381 25.9187C277.614 22.9101 278.845 21.3637 281.588 20.4852C284.331 19.6067 286.239 20.1478 287.384 23.0354Z" stroke="#313B6B" stroke-width="2.82134" stroke-linecap="round" stroke-linejoin="round"/>
</g>
<rect x="82" y="97.9511" width="138.028" height="138.028" rx="69.0138" transform="rotate(-23.9138 82 97.9511)" fill="#E4EAF8"/>
<g clip-path="url(#clip5_0_308)">
<path d="M151.164 156.399L144.887 145.05C137.65 131.769 142.051 113.115 160.576 104.9C179.102 96.6859 195.88 105.948 200.864 120.228L205.061 132.499" stroke="#313B6B" stroke-width="4.92956" stroke-linecap="round" stroke-linejoin="round"/>
<path d="M148.819 151.805C149.995 154.183 151.226 156.608 152.605 159.011C153.985 161.415 155.459 163.701 156.918 165.913C159.914 170.436 163.36 170.656 167.716 168.134C172.072 165.612 173.611 162.507 171.214 157.636C170.036 155.259 168.806 152.834 167.427 150.43C166.047 148.026 164.573 145.74 163.114 143.528C160.118 139.005 156.672 138.785 152.316 141.307C147.96 143.829 146.423 146.935 148.819 151.805Z" fill="#B6C0F3"/>
<path d="M203.231 127.678C204.204 130.146 205.175 132.686 206.03 135.322C206.885 137.959 207.591 140.586 208.25 143.153C209.591 148.409 207.44 151.111 202.646 152.646C197.853 154.181 194.518 153.237 192.518 148.191C191.547 145.721 190.575 143.182 189.72 140.546C188.865 137.909 188.16 135.282 187.5 132.715C186.159 127.459 188.31 124.757 193.104 123.222C197.897 121.687 201.231 122.632 203.231 127.678Z" fill="#B6C0F3"/>
<path d="M148.819 151.805C149.995 154.183 151.226 156.608 152.605 159.011C153.985 161.415 155.459 163.701 156.918 165.913C159.914 170.436 163.36 170.656 167.716 168.134C172.072 165.612 173.611 162.507 171.214 157.636C170.036 155.259 168.806 152.834 167.427 150.43C166.047 148.026 164.573 145.74 163.114 143.528C160.118 139.005 156.672 138.785 152.316 141.307C147.96 143.829 146.423 146.935 148.819 151.805Z" stroke="#313B6B" stroke-width="4.92956" stroke-linecap="round" stroke-linejoin="round"/>
<path d="M203.231 127.678C204.204 130.146 205.175 132.686 206.03 135.322C206.885 137.959 207.591 140.586 208.25 143.153C209.591 148.409 207.44 151.111 202.646 152.646C197.853 154.181 194.518 153.237 192.518 148.191C191.547 145.721 190.575 143.182 189.72 140.546C188.865 137.909 188.16 135.282 187.5 132.715C186.159 127.459 188.31 124.757 193.104 123.222C197.897 121.687 201.231 122.632 203.231 127.678Z" stroke="#313B6B" stroke-width="4.92956" stroke-linecap="round" stroke-linejoin="round"/>
</g>
<rect x="366.8" y="5" width="61.3559" height="61.3559" rx="30.6779" transform="rotate(12.0417 366.8 5)" fill="#E4EAF8"/>
<g clip-path="url(#clip6_0_308)">
<path d="M376.433 44.0832L377.136 38.3611C377.999 31.6936 384.451 26.1301 393.261 28.0094C402.071 29.8887 405.691 37.6008 403.757 44.0398L402.064 49.5508" stroke="#313B6B" stroke-width="2.19128" stroke-linecap="round" stroke-linejoin="round"/>
<path d="M376.788 41.8177C376.59 42.9806 376.4 44.1741 376.269 45.3992C376.138 46.6242 376.072 47.8316 376.02 49.0084C375.917 51.4177 377.1 52.3963 379.325 52.6256C381.551 52.8551 382.915 52.1394 383.324 49.7613C383.521 48.5982 383.711 47.4048 383.842 46.1797C383.973 44.9547 384.039 43.7473 384.092 42.5706C384.194 40.1612 383.011 39.1826 380.786 38.9532C378.56 38.7238 377.197 39.4399 376.788 41.8177Z" fill="#B6C0F3"/>
<path d="M402.664 47.338C402.37 48.4803 402.056 49.6475 401.676 50.8193C401.295 51.9911 400.864 53.1205 400.431 54.2162C399.541 56.4577 398.062 56.8683 395.937 56.1696C393.811 55.4708 392.858 54.2608 393.455 51.9229C393.75 50.7808 394.063 49.6135 394.444 48.4417C394.824 47.2699 395.256 46.1405 395.689 45.0449C396.578 42.8034 398.057 42.3926 400.183 43.0913C402.308 43.79 403.261 45.0004 402.664 47.338Z" fill="#B6C0F3"/>
<path d="M376.788 41.8177C376.59 42.9806 376.4 44.1741 376.269 45.3992C376.138 46.6242 376.072 47.8316 376.02 49.0084C375.917 51.4178 377.1 52.3963 379.325 52.6256C381.551 52.8551 382.915 52.1394 383.324 49.7613C383.521 48.5982 383.711 47.4048 383.842 46.1797C383.973 44.9547 384.039 43.7473 384.092 42.5706C384.194 40.1612 383.011 39.1826 380.786 38.9532C378.56 38.7238 377.197 39.4399 376.788 41.8177Z" stroke="#313B6B" stroke-width="2.19128" stroke-linecap="round" stroke-linejoin="round"/>
<path d="M402.664 47.338C402.37 48.4803 402.056 49.6475 401.676 50.8193C401.295 51.9911 400.864 53.1205 400.431 54.2162C399.541 56.4577 398.062 56.8683 395.937 56.1696C393.811 55.4708 392.858 54.2608 393.455 51.9229C393.75 50.7808 394.063 49.6135 394.444 48.4417C394.824 47.2699 395.256 46.1405 395.689 45.0449C396.578 42.8034 398.057 42.3926 400.183 43.0913C402.308 43.79 403.261 45.0004 402.664 47.338Z" stroke="#313B6B" stroke-width="2.19128" stroke-linecap="round" stroke-linejoin="round"/>
</g>
<rect x="12.8004" y="74" width="61.3559" height="61.3559" rx="30.6779" transform="rotate(12.0417 12.8004 74)" fill="#DBDDF8"/>
<g clip-path="url(#clip7_0_308)">
<path d="M22.433 113.083L23.1364 107.361C23.9988 100.694 30.4511 95.1301 39.2609 97.0094C48.0708 98.8887 51.6906 106.601 49.7571 113.04L48.0644 118.551" stroke="#313B6B" stroke-width="2.19128" stroke-linecap="round" stroke-linejoin="round"/>
<path d="M22.7879 110.818C22.5902 111.981 22.4002 113.174 22.2693 114.399C22.1385 115.624 22.072 116.832 22.0198 118.008C21.9171 120.418 23.1 121.396 25.3255 121.626C27.5512 121.855 28.9154 121.139 29.3242 118.761C29.5207 117.598 29.7113 116.405 29.8421 115.18C29.973 113.955 30.0395 112.747 30.0917 111.571C30.1943 109.161 29.0115 108.183 26.786 107.953C24.5605 107.724 23.1966 108.44 22.7879 110.818Z" fill="#B6C0F3"/>
<path d="M48.664 116.338C48.3699 117.48 48.0564 118.647 47.676 119.819C47.2954 120.991 46.8636 122.121 46.4309 123.216C45.5414 125.458 44.0622 125.868 41.9368 125.17C39.8113 124.471 38.8579 123.261 39.4552 120.923C39.7503 119.781 40.0634 118.613 40.4438 117.442C40.8242 116.27 41.2562 115.14 41.6887 114.045C42.5782 111.803 44.0574 111.393 46.1828 112.091C48.3082 112.79 49.261 114 48.664 116.338Z" fill="#B6C0F3"/>
<path d="M22.7879 110.818C22.5902 111.981 22.4002 113.174 22.2693 114.399C22.1385 115.624 22.072 116.832 22.0198 118.008C21.9171 120.418 23.1 121.396 25.3255 121.626C27.5512 121.855 28.9154 121.139 29.3242 118.761C29.5207 117.598 29.7113 116.405 29.8421 115.18C29.973 113.955 30.0395 112.747 30.0917 111.571C30.1943 109.161 29.0115 108.183 26.786 107.953C24.5605 107.724 23.1966 108.44 22.7879 110.818Z" stroke="#313B6B" stroke-width="2.19128" stroke-linecap="round" stroke-linejoin="round"/>
<path d="M48.664 116.338C48.3699 117.48 48.0564 118.647 47.676 119.819C47.2954 120.991 46.8636 122.121 46.4309 123.216C45.5414 125.458 44.0622 125.868 41.9368 125.17C39.8113 124.471 38.8579 123.261 39.4552 120.923C39.7503 119.781 40.0634 118.613 40.4438 117.442C40.8242 116.27 41.2562 115.14 41.6887 114.045C42.5782 111.803 44.0574 111.393 46.1828 112.091C48.3082 112.79 49.261 114 48.664 116.338Z" stroke="#313B6B" stroke-width="2.19128" stroke-linecap="round" stroke-linejoin="round"/>
</g>
<defs>
<clipPath id="clip0_0_308">
<rect width="56.7602" height="56.7602" fill="white" transform="translate(468.311 102.971) rotate(39.8103)"/>
</clipPath>
<clipPath id="clip1_0_308">
<rect width="47.534" height="47.534" fill="white" transform="translate(53.3774 3.73021) rotate(-29.4251)"/>
</clipPath>
<clipPath id="clip2_0_308">
<rect width="39.4987" height="39.4987" fill="white" transform="translate(299.06 113.071) rotate(-23.9138)"/>
</clipPath>
<clipPath id="clip3_0_308">
<rect width="39.4987" height="39.4987" fill="white" transform="translate(474.06 3.07089) rotate(-23.9138)"/>
</clipPath>
<clipPath id="clip4_0_308">
<rect width="39.4987" height="39.4987" fill="white" transform="translate(244.06 16.0709) rotate(-23.9138)"/>
</clipPath>
<clipPath id="clip5_0_308">
<rect width="69.0138" height="69.0138" fill="white" transform="translate(127.532 115.508) rotate(-23.9138)"/>
</clipPath>
<clipPath id="clip6_0_308">
<rect width="30.6779" height="30.6779" fill="white" transform="translate(378.602 23.2014) rotate(12.0417)"/>
</clipPath>
<clipPath id="clip7_0_308">
<rect width="30.6779" height="30.6779" fill="white" transform="translate(24.6017 92.2014) rotate(12.0417)"/>
</clipPath>
</defs>
</svg>
